<svg xmlns="http://www.w3.org/2000/svg" width="60" height="60" viewBox="0 0 60 60">
  <g id="Group_1107" data-name="Group 1107" transform="translate(-0.5 -0.052)">
    <circle id="Ellipse_130" data-name="Ellipse 130" cx="30" cy="30" r="30" transform="translate(0.5 0.052)" fill="#f2af29"/>
    <path id="Path_1108" data-name="Path 1108" d="M26.557,0H2.064A2.064,2.064,0,0,0,0,2.064V26.556A2.064,2.064,0,0,0,2.064,28.62H15.289V17.552H11.571V13.22h3.717V10.032c0-3.7,2.257-5.71,5.555-5.71a30.572,30.572,0,0,1,3.333.17V8.357H21.9c-1.794,0-2.142.853-2.142,2.1V13.22h4.29l-.559,4.332H19.761V28.62h6.8a2.064,2.064,0,0,0,2.064-2.064V2.064A2.064,2.064,0,0,0,26.557,0Zm0,0" transform="translate(15.741 15.741)" fill="#616055"/>
  </g>
</svg>
