<svg xmlns="http://www.w3.org/2000/svg" width="60" height="60" viewBox="0 0 60 60">
  <g id="Group_1108" data-name="Group 1108" transform="translate(-0.051 -0.052)">
    <circle id="Ellipse_131" data-name="Ellipse 131" cx="30" cy="30" r="30" transform="translate(0.052 0.052)" fill="#f2af29"/>
    <g id="Group_1106" data-name="Group 1106" transform="translate(15.741 15.741)">
      <path id="Path_1109" data-name="Path 1109" d="M216.031,213.515A2.515,2.515,0,1,1,213.515,211,2.516,2.516,0,0,1,216.031,213.515Zm0,0" transform="translate(-199.205 -199.205)" fill="#616055"/>
      <path id="Path_1110" data-name="Path 1110" d="M131.851,120h-8.5A3.358,3.358,0,0,0,120,123.354v8.5a3.358,3.358,0,0,0,3.354,3.354h8.5a3.358,3.358,0,0,0,3.354-3.354v-8.5A3.358,3.358,0,0,0,131.851,120ZM127.6,131.795a4.192,4.192,0,1,1,4.192-4.192A4.2,4.2,0,0,1,127.6,131.795Zm4.807-8.161a.839.839,0,1,1,.839-.839A.838.838,0,0,1,132.41,123.633Zm0,0" transform="translate(-113.292 -113.292)" fill="#616055"/>
      <path id="Path_1111" data-name="Path 1111" d="M21.074,0H7.546A7.555,7.555,0,0,0,0,7.546V21.074a7.555,7.555,0,0,0,7.546,7.546H21.074a7.555,7.555,0,0,0,7.546-7.546V7.546A7.555,7.555,0,0,0,21.074,0ZM23.59,18.559a5.037,5.037,0,0,1-5.031,5.031h-8.5a5.037,5.037,0,0,1-5.031-5.031v-8.5a5.037,5.037,0,0,1,5.031-5.031h8.5a5.037,5.037,0,0,1,5.031,5.031Zm0,0" fill="#616055"/>
    </g>
  </g>
</svg>
