<svg xmlns="http://www.w3.org/2000/svg" width="30" height="30" viewBox="0 0 30 30">
  <g id="vuesax_linear_call-calling" data-name="vuesax/linear/call-calling" transform="translate(-172 -188)">
    <g id="call-calling" transform="translate(172 188)">
      <g id="call-calling-2" data-name="call-calling" transform="translate(2.5 2.5)">
        <path id="Vector" d="M24.962,20.412a3.182,3.182,0,0,1-.312,1.363,5.158,5.158,0,0,1-.85,1.275,5.635,5.635,0,0,1-2.05,1.475A6.277,6.277,0,0,1,19.313,25a10.417,10.417,0,0,1-4.075-.912,21.955,21.955,0,0,1-4.3-2.475,35.938,35.938,0,0,1-4.1-3.5A35.517,35.517,0,0,1,3.35,14.025,22.285,22.285,0,0,1,.9,9.763,10.528,10.528,0,0,1,0,5.675,6.466,6.466,0,0,1,.45,3.263,5.753,5.753,0,0,1,1.888,1.175,3.662,3.662,0,0,1,4.487,0,2.349,2.349,0,0,1,5.5.225a2.038,2.038,0,0,1,.838.7l2.9,4.087a4.278,4.278,0,0,1,.5.875,1.976,1.976,0,0,1,.175.762,1.7,1.7,0,0,1-.262.887,4.252,4.252,0,0,1-.7.888L8,9.412a.669.669,0,0,0-.2.5,1.135,1.135,0,0,0,.038.288c.037.1.075.175.1.25A10.373,10.373,0,0,0,9.1,12.05c.563.65,1.162,1.313,1.813,1.975.675.662,1.325,1.275,1.987,1.837a9.594,9.594,0,0,0,1.613,1.15c.063.025.138.063.225.1a.863.863,0,0,0,.312.05.688.688,0,0,0,.512-.213l.95-.937a3.835,3.835,0,0,1,.9-.7,1.665,1.665,0,0,1,.887-.262,2,2,0,0,1,.763.162,4.835,4.835,0,0,1,.875.488l4.137,2.937a1.9,1.9,0,0,1,.688.8A2.565,2.565,0,0,1,24.962,20.412Z" fill="none" stroke="#fff" stroke-width="1.5"/>
        <path id="Vector-2" data-name="Vector" d="M4.375,4.375A4.957,4.957,0,0,0,2.912,1.537,4.27,4.27,0,0,0,0,0" transform="translate(16.25 4.375)" fill="none" stroke="#fff" stroke-linecap="round" stroke-linejoin="round" stroke-width="1.5"/>
        <path id="Vector-3" data-name="Vector" d="M8.75,8.75A8.744,8.744,0,0,0,0,0" transform="translate(16.25)" fill="none" stroke="#fff" stroke-linecap="round" stroke-linejoin="round" stroke-width="1.5"/>
      </g>
      <path id="Vector-4" data-name="Vector" d="M0,0H30V30H0Z" fill="none" opacity="0"/>
    </g>
  </g>
</svg>
