<svg xmlns="http://www.w3.org/2000/svg" width="44.672" height="60" viewBox="0 0 44.672 60">
  <g id="Group_1648" data-name="Group 1648" transform="translate(-51.988 -0.001)">
    <g id="Group_1647" data-name="Group 1647" transform="translate(51.988 0.001)">
      <g id="Group_1646" data-name="Group 1646" transform="translate(0 0)">
        <path id="Path_1243" data-name="Path 1243" d="M155.61,4.548h-4.39a1.232,1.232,0,0,1-1.155-.924A4.467,4.467,0,0,0,145.52,0a4.544,4.544,0,0,0-4.544,3.7,1.155,1.155,0,0,1-1.155.847h-4.236v7.7H155.61Z" transform="translate(-123.261 -0.001)"/>
        <path id="Path_1244" data-name="Path 1244" d="M96.659,109.43V65.3a3.158,3.158,0,0,0-3.149-3.166q-.12,0-.24.008H86.647v3.928c0,.616-.385,1.463-1,1.463H62.925c-.616,0-.924-.847-.924-1.463V62.141H55.378A3.158,3.158,0,0,0,52,65.059q-.009.12-.008.24V109.43a3.466,3.466,0,0,0,3.387,3.543H93.271a3.466,3.466,0,0,0,3.389-3.541A.007.007,0,0,1,96.659,109.43ZM68.086,99.264l-6.007,5.622a1.078,1.078,0,0,1-.77.385,1.233,1.233,0,0,1-.847-.385L57.3,101.652A1.172,1.172,0,0,1,59,100.034l2.31,2.465,5.237-4.929a1.155,1.155,0,0,1,1.54,1.694Zm0-12.323h0l-6.007,5.622a1.078,1.078,0,0,1-.77.385,1.233,1.233,0,0,1-.847-.385L57.3,89.329A1.172,1.172,0,0,1,59,87.711l2.31,2.465,5.237-4.929a1.155,1.155,0,0,1,1.54,1.694Zm0-12.323L62.078,80.24a1.078,1.078,0,0,1-.77.385,1.233,1.233,0,0,1-.847-.385L57.3,77.006A1.172,1.172,0,0,1,59,75.388l2.31,2.465,5.237-4.929a1.155,1.155,0,0,1,1.54,1.694ZM90.5,103.731H72.784a1.155,1.155,0,1,1,0-2.311H90.5a1.155,1.155,0,0,1,0,2.311Zm0-12.323H72.784a1.155,1.155,0,1,1,0-2.311H90.5a1.155,1.155,0,0,1,0,2.311Zm0-12.323H72.784a1.155,1.155,0,1,1,0-2.311H90.5a1.155,1.155,0,0,1,0,2.311Z" transform="translate(-51.988 -52.973)"/>
      </g>
    </g>
  </g>
</svg>
