<svg xmlns="http://www.w3.org/2000/svg" width="60" height="45.84" viewBox="0 0 60 45.84">
  <g id="Group_1299" data-name="Group 1299" transform="translate(0 -35.048)">
    <g id="Group_1298" data-name="Group 1298" transform="translate(0 35.048)">
      <g id="Group_1297" data-name="Group 1297">
        <path id="Path_1160" data-name="Path 1160" d="M36.974,35.049h-.005a2.116,2.116,0,0,0-1.5.623,2.138,2.138,0,0,0-.632,1.524v32.2a2.154,2.154,0,0,0,2.15,2.146c5,.012,13.371,1.054,19.147,7.1V44.943a2.057,2.057,0,0,0-.3-1.087C51.093,36.221,41.983,35.061,36.974,35.049Z" transform="translate(-27.796 -35.049)"/>
        <path id="Path_1161" data-name="Path 1161" d="M178.047,69.39V37.2a2.138,2.138,0,0,0-.632-1.524,2.117,2.117,0,0,0-1.5-.623h-.005c-5.009.012-14.119,1.172-18.86,8.807a2.057,2.057,0,0,0-.295,1.087V78.635c5.776-6.045,14.149-7.086,19.147-7.1A2.154,2.154,0,0,0,178.047,69.39Z" transform="translate(-125.084 -35.048)"/>
        <path id="Path_1162" data-name="Path 1162" d="M194.692,71.8h-1.557V98.718a5.493,5.493,0,0,1-5.475,5.48c-4.239.01-11.229.839-16.179,5.524,8.561-2.1,17.586-.734,22.73.439a2.147,2.147,0,0,0,2.627-2.092V73.948A2.149,2.149,0,0,0,194.692,71.8Z" transform="translate(-136.839 -64.376)"/>
        <path id="Path_1163" data-name="Path 1163" d="M3.7,98.718V71.8H2.147A2.149,2.149,0,0,0,0,73.948v34.121a2.147,2.147,0,0,0,2.627,2.092c5.143-1.172,14.169-2.535,22.73-.439-4.95-4.685-11.939-5.514-16.178-5.524A5.493,5.493,0,0,1,3.7,98.718Z" transform="translate(0 -64.376)"/>
      </g>
    </g>
  </g>
</svg>
