<svg xmlns="http://www.w3.org/2000/svg" width="60" height="56.667" viewBox="0 0 60 56.667">
  <g id="Group_1650" data-name="Group 1650" transform="translate(0)">
    <path id="Path_1248" data-name="Path 1248" d="M1.667,234.668H8.333A1.667,1.667,0,0,1,10,236.334V253a1.667,1.667,0,0,1-1.667,1.667H1.667A1.667,1.667,0,0,1,0,253V236.334a1.667,1.667,0,0,1,1.667-1.666Zm0,0" transform="translate(0 -198.001)"/>
    <path id="Path_1249" data-name="Path 1249" d="M108.334,149.332H115A1.667,1.667,0,0,1,116.668,151v30A1.667,1.667,0,0,1,115,182.666h-6.667A1.667,1.667,0,0,1,106.668,181V151A1.667,1.667,0,0,1,108.334,149.332Zm0,0" transform="translate(-90.001 -125.999)"/>
    <path id="Path_1250" data-name="Path 1250" d="M215,192h6.667a1.667,1.667,0,0,1,1.666,1.667V217a1.667,1.667,0,0,1-1.666,1.667H215A1.667,1.667,0,0,1,213.332,217V193.667A1.667,1.667,0,0,1,215,192Zm0,0" transform="translate(-179.999 -162)"/>
    <path id="Path_1251" data-name="Path 1251" d="M321.667,128h6.666A1.667,1.667,0,0,1,330,129.667V163a1.667,1.667,0,0,1-1.667,1.667h-6.666A1.667,1.667,0,0,1,320,163V129.667A1.667,1.667,0,0,1,321.667,128Zm0,0" transform="translate(-270 -108)"/>
    <path id="Path_1252" data-name="Path 1252" d="M55,0a5.006,5.006,0,0,0-5,5,4.943,4.943,0,0,0,.286,1.6l-8.343,4.96a4.958,4.958,0,0,0-7.982,1.069L26.6,8.98a5.007,5.007,0,0,0,.065-.647,5,5,0,1,0-9.619,1.906L7.5,17.363a4.942,4.942,0,0,0-2.5-.7,5.053,5.053,0,1,0,4.665,3.242l9.641-7.2a4.894,4.894,0,0,0,5.789-.759L33.464,16.1A5,5,0,0,0,43.333,15c0-.127-.028-.247-.037-.371L52.37,9.234A4.95,4.95,0,0,0,55,10,5,5,0,0,0,55,0Zm0,0"/>
  </g>
</svg>
