<svg xmlns="http://www.w3.org/2000/svg" width="53.312" height="60" viewBox="0 0 53.312 60">
  <g id="Group_1652" data-name="Group 1652" transform="translate(-28.537 0)">
    <path id="Path_1258" data-name="Path 1258" d="M205.854,17.058a2.65,2.65,0,0,0,4.137,1.988,2.227,2.227,0,0,1,3.488,1.834v7.372H219a6.16,6.16,0,1,1,11.964,0h5.579a11.554,11.554,0,0,0-9.13-17.736,8.8,8.8,0,0,0-13.936-8.669v11a2.227,2.227,0,0,1-3.488,1.834A2.649,2.649,0,0,0,205.854,17.058Z" transform="translate(-156.532 -0.069)"/>
    <path id="Path_1259" data-name="Path 1259" d="M37.911,28.184a2.227,2.227,0,0,1,1.834,3.489,2.646,2.646,0,1,0,4.363,0,2.227,2.227,0,0,1,1.834-3.488h7.491V22.777a6.16,6.16,0,1,1,0-11.962V1.779a8.812,8.812,0,0,0-13.957,8.553A11.58,11.58,0,0,0,30.4,28.184Z" transform="translate(0 0)"/>
    <path id="Path_1260" data-name="Path 1260" d="M293.982,213.008H286.5a2.227,2.227,0,0,1-1.834-3.488,2.646,2.646,0,1,0-4.363,0,2.227,2.227,0,0,1-1.834,3.489h-7.491v5.4a6.16,6.16,0,1,1,0,11.962v9.156a8.812,8.812,0,0,0,13.957-8.553,11.63,11.63,0,0,0,9.05-17.97Z" transform="translate(-214.027 -181.31)"/>
    <path id="Path_1261" data-name="Path 1261" d="M61.065,282.075a2.649,2.649,0,0,0-4.137-2.373,2.227,2.227,0,0,1-3.488-1.834V270.5H47.914a6.16,6.16,0,1,1-11.964,0H30.411A11.578,11.578,0,0,0,39.5,288.35a8.8,8.8,0,0,0,13.936,8.669V285.9a2.227,2.227,0,0,1,3.488-1.834,2.65,2.65,0,0,0,4.137-1.989Z" transform="translate(-0.007 -238.797)"/>
  </g>
</svg>
