<svg xmlns="http://www.w3.org/2000/svg" width="60" height="46.34" viewBox="0 0 60 46.34">
  <g id="Group_1582" data-name="Group 1582" transform="translate(-4.018 -10.389)">
    <path id="Path_1188" data-name="Path 1188" d="M62.954,22.441,34.779,10.529a1.743,1.743,0,0,0-1.372,0L5.092,22.4a1.8,1.8,0,0,0-.011,3.291c1.674.717,11.469,4.827,12.844,5.425l15.481,6.529a1.816,1.816,0,0,0,1.372-.011c4.974-2.1,17.812-7.526,22.589-9.552-.012,1.327.008,12.518,0,14.141-2.129.537-2.994,4.167-1.8,6.132l-1.576,7.076a1.047,1.047,0,0,0,.461,1.126,1.06,1.06,0,0,0,1.222-.043,4.61,4.61,0,0,1,2.627-.9,4.546,4.546,0,0,1,2.8.911,1.084,1.084,0,0,0,1.672-1.158l-2-7.044c1.032-1.769.471-4.945-1.254-5.832.01-1.637-.007-14.022,0-15.31l3.441-1.458a1.8,1.8,0,0,0,0-3.281Z" transform="translate(0 0)"/>
    <path id="Path_1189" data-name="Path 1189" d="M31.779,38.127c-1.291-.545-15.994-6.759-16.789-7.087V41.483a3.463,3.463,0,0,0,1.533,2.83A29.877,29.877,0,0,0,32.465,49.47a30.61,30.61,0,0,0,17.572-5.125,3.5,3.5,0,0,0,1.576-2.873V31.03c-.744.323-15.528,6.564-16.789,7.1A4,4,0,0,1,31.779,38.127Z" transform="translate(0.791 1.488)"/>
  </g>
</svg>
