<svg xmlns="http://www.w3.org/2000/svg" width="50.391" height="60" viewBox="0 0 50.391 60">
  <g id="Group_1651" data-name="Group 1651" transform="translate(-41)">
    <circle id="Ellipse_151" data-name="Ellipse 151" cx="9.961" cy="9.961" r="9.961" transform="translate(56.234)"/>
    <path id="Path_1253" data-name="Path 1253" d="M160.172,181.515a13.449,13.449,0,0,1-14.639,0,20.488,20.488,0,0,0-6.373,3.893l13.692,5.135,13.692-5.135A20.486,20.486,0,0,0,160.172,181.515Z" transform="translate(-86.658 -160.244)"/>
    <path id="Path_1254" data-name="Path 1254" d="M413.93,310h-1.172A1.758,1.758,0,0,0,411,311.758v4.688a1.758,1.758,0,0,0,1.758,1.758h1.172a4.1,4.1,0,0,0,0-8.2Z" transform="translate(-326.641 -273.672)"/>
    <path id="Path_1255" data-name="Path 1255" d="M81.757,231.917A1.758,1.758,0,0,0,81,233.362v3.913h.586a5.279,5.279,0,0,1,5.273,5.273v4.688a5.279,5.279,0,0,1-5.273,5.273H81v3.7a1.758,1.758,0,0,0,1.141,1.646l17.609,6.6V237.856l-16.375-6.141A1.757,1.757,0,0,0,81.757,231.917Z" transform="translate(-35.313 -204.463)"/>
    <path id="Path_1256" data-name="Path 1256" d="M283.891,247.236v-4.687a5.279,5.279,0,0,1,5.273-5.273h.586v-3.913a1.758,1.758,0,0,0-2.375-1.646L271,237.856v26.606l17.609-6.6a1.758,1.758,0,0,0,1.141-1.646v-3.7h-.586A5.279,5.279,0,0,1,283.891,247.236Z" transform="translate(-203.047 -204.463)"/>
    <path id="Path_1257" data-name="Path 1257" d="M48.031,316.445v-4.687A1.758,1.758,0,0,0,46.273,310H45.1a4.1,4.1,0,0,0,0,8.2h1.172A1.758,1.758,0,0,0,48.031,316.445Z" transform="translate(0 -273.672)"/>
  </g>
</svg>
