<svg xmlns="http://www.w3.org/2000/svg" width="60" height="57.6" viewBox="0 0 60 57.6">
  <g id="Group_1649" data-name="Group 1649" transform="translate(-7.969 -8.851)">
    <path id="Path_1245" data-name="Path 1245" d="M65.169,35.309h-50v-1.9c.012-.2.024-.4.036-.585.624-9.192,1.524-9.827,4.344-11.882.132-.1.264-.187.408-.3a3.527,3.527,0,0,0,2.412.971,3.739,3.739,0,1,0-3.6-3.737,2.954,2.954,0,0,0,.048.56c-.228.162-.432.311-.636.461-3.516,2.541-4.7,3.861-5.376,13.925-.012.162-.024.324-.036.5v1.99h-2a2.855,2.855,0,0,0-2.8,2.906v6.643a2.855,2.855,0,0,0,2.8,2.906h2.7l5.386,17.889a1.213,1.213,0,0,0,1.116.8h36a1.213,1.213,0,0,0,1.116-.8l5.386-17.889h2.7a2.855,2.855,0,0,0,2.8-2.906V38.215a2.855,2.855,0,0,0-2.8-2.906Z"/>
    <path id="Path_1246" data-name="Path 1246" d="M18.544,26.5v.855H57.395V26.5c0-3.419-5.887-6.2-13.134-6.2H42.452a2.014,2.014,0,0,0-1.2.344l-3.332,2.591-3.242-2.582a1.952,1.952,0,0,0-1.2-.352H31.694c-7.247,0-13.149,2.776-13.149,6.2Z" transform="translate(0 4.973)"/>
    <path id="Path_1247" data-name="Path 1247" d="M35.314,14.164A5.314,5.314,0,1,0,30,19.469a5.32,5.32,0,0,0,5.314-5.3Z" transform="translate(7.969)"/>
  </g>
</svg>
