<svg xmlns="http://www.w3.org/2000/svg" width="48.837" height="60" viewBox="0 0 48.837 60">
  <g id="Icon" transform="translate(-3.25 -1.25)">
    <path id="Path_1267" data-name="Path 1267" d="M52.087,6.134A4.884,4.884,0,0,0,47.2,1.25H8.134A4.884,4.884,0,0,0,3.25,6.134V56.366A4.884,4.884,0,0,0,8.134,61.25H47.2a4.884,4.884,0,0,0,4.884-4.884ZM12.189,48.17l3.14,3.349a2.092,2.092,0,0,0,3.2-.176l5.233-6.977a2.093,2.093,0,0,0-3.349-2.512l-3.737,4.981-1.434-1.529a2.093,2.093,0,0,0-3.053,2.863Zm18.271.522H41.622a2.093,2.093,0,0,0,0-4.186H30.459a2.093,2.093,0,0,0,0,4.186ZM12.189,32.821l3.14,3.349a2.092,2.092,0,0,0,3.2-.176l5.233-6.977a2.093,2.093,0,0,0-3.349-2.512l-3.737,4.981-1.434-1.529a2.093,2.093,0,0,0-3.053,2.863Zm18.271.522H41.622a2.093,2.093,0,0,0,0-4.186H30.459a2.093,2.093,0,0,0,0,4.186ZM12.189,17.472l3.14,3.349a2.092,2.092,0,0,0,3.2-.176l5.233-6.977a2.093,2.093,0,1,0-3.349-2.512l-3.737,4.981-1.434-1.529a2.093,2.093,0,0,0-3.053,2.863Zm18.271.522H41.622a2.093,2.093,0,0,0,0-4.186H30.459a2.093,2.093,0,0,0,0,4.186Z" transform="translate(0 0)" fill-rule="evenodd"/>
  </g>
</svg>
