<svg xmlns="http://www.w3.org/2000/svg" width="86.249" height="86.249" viewBox="0 0 86.249 86.249">
  <g id="Group_1419" data-name="Group 1419" transform="translate(0)">
    <path id="Path_1203" data-name="Path 1203" d="M178.083,215.4l8.032-8.032a11.659,11.659,0,1,0,3.573,3.573l-8.032,8.032Z" transform="translate(-139.888 -170.921)"/>
    <path id="Path_1204" data-name="Path 1204" d="M79.962,77.3a39.91,39.91,0,0,0-5.084-19.524l-9.955,1.364a30.9,30.9,0,1,1-6.781-6.781L59.505,42.4A39.988,39.988,0,1,0,79.962,77.3Z" transform="translate(0 -31.032)"/>
    <path id="Path_1205" data-name="Path 1205" d="M109.925,121.432a25.84,25.84,0,1,0,19.943,9.443l-6.491,6.491a16.714,16.714,0,1,1-3.573-3.573l6.491-6.491a25.692,25.692,0,0,0-16.369-5.869Z" transform="translate(-69.944 -100.976)"/>
    <path id="Path_1206" data-name="Path 1206" d="M386.72,0,375.489,11.231l-1.65,12.043,12.043-1.65,11.231-11.231-7.581-2.812Z" transform="translate(-310.864)"/>
  </g>
</svg>
