<svg xmlns="http://www.w3.org/2000/svg" width="86.249" height="86.587" viewBox="0 0 86.249 86.587">
  <g id="Group_1421" data-name="Group 1421" transform="translate(0)">
    <path id="Path_1216" data-name="Path 1216" d="M271,452v10.147h24.522a2.537,2.537,0,0,0,2.537-2.537v-5.073A2.537,2.537,0,0,0,295.522,452Z" transform="translate(-225.339 -375.56)"/>
    <path id="Path_1217" data-name="Path 1217" d="M108.058,452v10.147H83.537A2.537,2.537,0,0,1,81,459.61v-5.073A2.537,2.537,0,0,1,83.537,452Z" transform="translate(-67.471 -375.56)"/>
    <path id="Path_1218" data-name="Path 1218" d="M287.245,48.049,275.953,59.342A16.912,16.912,0,0,0,271,71.3V89.646h23.676v-5l12.4-14.885a19.484,19.484,0,0,0,4.508-12.45V28.342a6.342,6.342,0,1,0-12.684,0V43.656a11.467,11.467,0,0,1,.9.806,11.415,11.415,0,0,1,0,16.144L288.722,71.684a2.537,2.537,0,0,1-3.587-3.587l11.079-11.079a6.342,6.342,0,1,0-8.969-8.968Z" transform="translate(-225.339 -18.28)"/>
    <path id="Path_1219" data-name="Path 1219" d="M41.588,89.646H17.912v-5L5.508,69.761A19.485,19.485,0,0,1,1,57.31V28.342a6.342,6.342,0,0,1,12.684,0V43.656a11.469,11.469,0,0,0-.9.806,11.415,11.415,0,0,0,0,16.144L23.866,71.684A2.537,2.537,0,1,0,27.453,68.1L16.374,57.018a6.342,6.342,0,1,1,8.968-8.968L36.635,59.342A16.911,16.911,0,0,1,41.588,71.3Z" transform="translate(-1 -18.28)"/>
    <path id="Path_1220" data-name="Path 1220" d="M161.4,3.2l-.751.751L159.9,3.2a10.932,10.932,0,0,0-15.461,15.461l14.417,14.417a2.537,2.537,0,0,0,3.587,0l14.418-14.418A10.932,10.932,0,0,0,161.4,3.2Z" transform="translate(-117.522 0)"/>
  </g>
</svg>
