<svg xmlns="http://www.w3.org/2000/svg" width="86.249" height="76.142" viewBox="0 0 86.249 76.142">
  <g id="Group_1420" data-name="Group 1420" transform="translate(0 0)">
    <path id="Path_1207" data-name="Path 1207" d="M19.71,143.153A23.455,23.455,0,0,1,38.1,120.281c-8.219,1.046-16.813,4.61-25.14,10.464A75.966,75.966,0,0,0,.63,141.475a2.527,2.527,0,0,0,0,3.338,75.959,75.959,0,0,0,12.335,10.729c8.259,5.807,16.781,9.36,24.939,10.439A23.456,23.456,0,0,1,19.71,143.153Z" transform="translate(-0.001 -105.073)"/>
    <path id="Path_1208" data-name="Path 1208" d="M147,165.416a18.362,18.362,0,1,0,18.362-18.362A18.382,18.382,0,0,0,147,165.416Zm21.731-7.59h6.738A2.527,2.527,0,0,1,178,160.353v6.738a2.527,2.527,0,0,1-5.054,0v-.638l-5.794,5.794a2.527,2.527,0,0,1-3.573,0l-3.271-3.271L157.08,172.2a2.527,2.527,0,0,1-3.573-3.573l5.01-5.01a2.527,2.527,0,0,1,3.573,0l3.271,3.271,4.007-4.007h-.638a2.527,2.527,0,0,1,0-5.054Z" transform="translate(-122.237 -127.336)"/>
    <path id="Path_1209" data-name="Path 1209" d="M323.277,141.475a75.956,75.956,0,0,0-12.335-10.729c-8.327-5.855-16.921-9.418-25.14-10.464a23.417,23.417,0,0,1,.2,45.7c8.158-1.079,16.68-4.632,24.939-10.439a75.975,75.975,0,0,0,12.335-10.729A2.527,2.527,0,0,0,323.277,141.475Z" transform="translate(-237.657 -105.074)"/>
    <path id="Path_1210" data-name="Path 1210" d="M350.713,394.126a2.527,2.527,0,1,0-4.376,2.527l2.611,4.523a2.527,2.527,0,0,0,4.376-2.527Z" transform="translate(-287.712 -331.736)"/>
    <path id="Path_1211" data-name="Path 1211" d="M243.527,40.107a2.527,2.527,0,0,0,2.527-2.527V32.527a2.527,2.527,0,0,0-5.054,0V37.58A2.527,2.527,0,0,0,243.527,40.107Z" transform="translate(-200.402 -30)"/>
    <path id="Path_1212" data-name="Path 1212" d="M347.761,71.378a2.526,2.526,0,0,0,3.452-.925l2.527-4.376a2.527,2.527,0,0,0-4.376-2.527l-2.527,4.376A2.526,2.526,0,0,0,347.761,71.378Z" transform="translate(-288.128 -56.847)"/>
    <path id="Path_1213" data-name="Path 1213" d="M243.527,421A2.527,2.527,0,0,0,241,423.527v5.222a2.527,2.527,0,1,0,5.054,0v-5.222A2.527,2.527,0,0,0,243.527,421Z" transform="translate(-200.402 -355.134)"/>
    <path id="Path_1214" data-name="Path 1214" d="M123.363,70.453a2.527,2.527,0,0,0,4.376-2.527l-2.527-4.376a2.527,2.527,0,0,0-4.376,2.527Z" transform="translate(-100.199 -56.847)"/>
    <path id="Path_1215" data-name="Path 1215" d="M126.9,393.2a2.526,2.526,0,0,0-3.452.925l-2.611,4.522a2.527,2.527,0,1,0,4.376,2.527l2.611-4.522A2.527,2.527,0,0,0,126.9,393.2Z" transform="translate(-100.199 -331.736)"/>
  </g>
</svg>
