<svg xmlns="http://www.w3.org/2000/svg" width="74.3" height="74.3" viewBox="0 0 74.3 74.3">
  <path id="Path_1119" data-name="Path 1119" d="M72.721,14.8a15.565,15.565,0,0,0-13.1-13.219,159.883,159.883,0,0,0-44.828,0,15.565,15.565,0,0,0-13.219,13.1,159.883,159.883,0,0,0,0,44.828,15.565,15.565,0,0,0,13.1,13.219A160.363,160.363,0,0,0,37.15,74.3a158.955,158.955,0,0,0,22.357-1.58A15.565,15.565,0,0,0,72.721,59.626,160.362,160.362,0,0,0,74.3,37.15a158.955,158.955,0,0,0-1.58-22.357ZM49.533,58.821H24.767a3.1,3.1,0,0,1,0-6.192H49.533a3.1,3.1,0,0,1,0,6.192Zm-8.38-20.764a3.1,3.1,0,1,1,4.378,4.378l-6.192,6.191a3.094,3.094,0,0,1-4.377,0L28.77,42.434a3.1,3.1,0,1,1,4.378-4.378l.907.907V18.575a3.1,3.1,0,1,1,6.192,0V38.964Z" fill="#fff"/>
</svg>
