<svg xmlns="http://www.w3.org/2000/svg" width="30" height="30" viewBox="0 0 30 30">
  <g id="Layer_93" data-name="Layer 93" transform="translate(-2 -2)">
    <path id="Path_2" data-name="Path 2" d="M27.5,6.5H26v-3a1.5,1.5,0,1,0-3,0v3H11v-3a1.5,1.5,0,1,0-3,0v3H6.5A4.5,4.5,0,0,0,2,11v1.5H32V11A4.5,4.5,0,0,0,27.5,6.5Z" transform="translate(0)" fill="#616055"/>
    <path id="Path_3" data-name="Path 3" d="M2,23a4.5,4.5,0,0,0,4.5,4.5h21A4.5,4.5,0,0,0,32,23V11H2Z" transform="translate(0 4.5)" fill="#616055"/>
  </g>
</svg>
