<svg xmlns="http://www.w3.org/2000/svg" width="180" height="180" viewBox="0 0 180 180">
  <g id="Group_37" data-name="Group 37" transform="translate(-870 -2761)">
    <circle id="Ellipse_4" data-name="Ellipse 4" cx="90" cy="90" r="90" transform="translate(870 2761)" fill="#f2af29" opacity="0.38"/>
    <circle id="Ellipse_5" data-name="Ellipse 5" cx="68" cy="68" r="68" transform="translate(892 2783)" fill="#f2af29"/>
    <g id="Play" transform="translate(929.667 2820.003)">
      <path id="Path_6" data-name="Path 6" d="M49.066,25.3,18.156,7.864a6.583,6.583,0,0,0-6.619.051,6.362,6.362,0,0,0-3.2,5.533V48.326a6.362,6.362,0,0,0,3.2,5.533,6.585,6.585,0,0,0,6.619.051L49.066,36.47a6.383,6.383,0,0,0,0-11.167Z" transform="translate(0 0)" fill="#fff"/>
    </g>
  </g>
</svg>
